<svg id="visual" viewBox="0 0 960 100" width="960" height="100" xmlns="http://www.w3.org/2000/svg" xmlns:xlink="http://www.w3.org/1999/xlink" version="1.1"><path d="M0 31L20 33.8C40 36.7 80 42.3 120 40.7C160 39 200 30 240 26.3C280 22.7 320 24.3 360 29.2C400 34 440 42 480 42C520 42 560 34 600 30.7C640 27.3 680 28.7 720 28.3C760 28 800 26 840 27.7C880 29.3 920 34.7 940 37.3L960 40L960 101L940 101C920 101 880 101 840 101C800 101 760 101 720 101C680 101 640 101 600 101C560 101 520 101 480 101C440 101 400 101 360 101C320 101 280 101 240 101C200 101 160 101 120 101C80 101 40 101 20 101L0 101Z" fill="#0077ff"></path><path d="M0 43L20 42C40 41 80 39 120 38.5C160 38 200 39 240 40.5C280 42 320 44 360 43.7C400 43.3 440 40.7 480 43.5C520 46.3 560 54.7 600 58.5C640 62.3 680 61.7 720 58.8C760 56 800 51 840 47.5C880 44 920 42 940 41L960 40L960 101L940 101C920 101 880 101 840 101C800 101 760 101 720 101C680 101 640 101 600 101C560 101 520 101 480 101C440 101 400 101 360 101C320 101 280 101 240 101C200 101 160 101 120 101C80 101 40 101 20 101L0 101Z" fill="#0060ca"></path><path d="M0 60L20 59.5C40 59 80 58 120 58.2C160 58.3 200 59.7 240 60.2C280 60.7 320 60.3 360 61.3C400 62.3 440 64.7 480 63.5C520 62.3 560 57.7 600 56.2C640 54.7 680 56.3 720 57.5C760 58.7 800 59.3 840 61.3C880 63.3 920 66.7 940 68.3L960 70L960 101L940 101C920 101 880 101 840 101C800 101 760 101 720 101C680 101 640 101 600 101C560 101 520 101 480 101C440 101 400 101 360 101C320 101 280 101 240 101C200 101 160 101 120 101C80 101 40 101 20 101L0 101Z" fill="#064998"></path><path d="M0 72L20 74C40 76 80 80 120 82C160 84 200 84 240 83.2C280 82.3 320 80.7 360 80.3C400 80 440 81 480 79.5C520 78 560 74 600 74.2C640 74.3 680 78.7 720 81.5C760 84.3 800 85.7 840 85.7C880 85.7 920 84.3 940 83.7L960 83L960 101L940 101C920 101 880 101 840 101C800 101 760 101 720 101C680 101 640 101 600 101C560 101 520 101 480 101C440 101 400 101 360 101C320 101 280 101 240 101C200 101 160 101 120 101C80 101 40 101 20 101L0 101Z" fill="#0d3368"></path></svg>